<?xml version="1.0" encoding="UTF-8" standalone="no"?>
<!-- Created with Inkscape (http://www.inkscape.org/) -->

<svg
   xmlns:dc="http://purl.org/dc/elements/1.1/"
   xmlns:cc="http://creativecommons.org/ns#"
   xmlns:rdf="http://www.w3.org/1999/02/22-rdf-syntax-ns#"
   xmlns:svg="http://www.w3.org/2000/svg"
   xmlns="http://www.w3.org/2000/svg"
   xmlns:sodipodi="http://sodipodi.sourceforge.net/DTD/sodipodi-0.dtd"
   xmlns:inkscape="http://www.inkscape.org/namespaces/inkscape"
   width="290mm"
   height="290mm"
   viewBox="0 0 290 290"
   version="1.1"
   id="svg10641"
   sodipodi:docname="paper-black-2.svg"
   inkscape:version="0.92.3 (2405546, 2018-03-11)">
  <defs
     id="defs10635" />
  <sodipodi:namedview
     id="base"
     pagecolor="#ffffff"
     bordercolor="#666666"
     borderopacity="1.0"
     inkscape:pageopacity="0.0"
     inkscape:pageshadow="2"
     inkscape:zoom="0.49741667"
     inkscape:cx="400.09898"
     inkscape:cy="620.89736"
     inkscape:document-units="mm"
     inkscape:current-layer="g1055"
     showgrid="false"
     fit-margin-top="25"
     fit-margin-left="25"
     fit-margin-right="25"
     fit-margin-bottom="25"
     inkscape:window-width="1366"
     inkscape:window-height="715"
     inkscape:window-x="-8"
     inkscape:window-y="-8"
     inkscape:window-maximized="1" />
  <metadata
     id="metadata10638">
    <rdf:RDF>
      <cc:Work
         rdf:about="">
        <dc:format>image/svg+xml</dc:format>
        <dc:type
           rdf:resource="http://purl.org/dc/dcmitype/StillImage" />
        <dc:title></dc:title>
      </cc:Work>
    </rdf:RDF>
  </metadata>
  <g
     inkscape:label="Layer 1"
     inkscape:groupmode="layer"
     id="layer1"
     transform="translate(0.02618344,55.40433)">
    <g
       id="g1055"
       transform="translate(39.140476,-0.3008705)"
       style="stroke-width:5.29166667;stroke-miterlimit:4;stroke-dasharray:none">
      <path
         inkscape:connector-curvature="0"
         id="path11233"
         d="M 184.70829,129.24341 A 78.874951,78.368498 0 0 1 105.83334,207.61129 78.874951,78.368498 0 0 1 26.958393,129.24341"
         style="opacity:1;vector-effect:none;fill:none;fill-opacity:1;fill-rule:nonzero;stroke:#000000;stroke-width:6.61458333;stroke-linecap:round;stroke-linejoin:round;stroke-miterlimit:4;stroke-dasharray:none;stroke-dashoffset:0;stroke-opacity:1;paint-order:stroke fill markers" />
      <path
         inkscape:connector-curvature="0"
         id="path11345"
         d="m 93.10418,-15.089041 a 12.729167,12.729167 0 0 1 12.72917,-12.729168 12.729167,12.729167 0 0 1 12.72916,12.729168"
         style="opacity:1;vector-effect:none;fill:none;fill-opacity:1;fill-rule:nonzero;stroke:#000000;stroke-width:6.61458333;stroke-linecap:round;stroke-linejoin:round;stroke-miterlimit:4;stroke-dasharray:none;stroke-dashoffset:0;stroke-opacity:1;paint-order:stroke fill markers" />
      <path
         inkscape:connector-curvature="0"
         id="path11345-5"
         d="m 126.17707,-6.046488 a 12.729167,12.729167 0 0 1 12.72917,-12.729168 12.729167,12.729167 0 0 1 12.72916,12.729168"
         style="opacity:1;vector-effect:none;fill:none;fill-opacity:1;fill-rule:nonzero;stroke:#000000;stroke-width:6.61458333;stroke-linecap:round;stroke-linejoin:round;stroke-miterlimit:4;stroke-dasharray:none;stroke-dashoffset:0;stroke-opacity:1;paint-order:stroke fill markers" />
      <path
         inkscape:connector-curvature="0"
         id="path11345-8"
         d="m 159.24996,50.868406 a 12.729167,12.729167 0 0 1 12.72917,-12.729168 12.729167,12.729167 0 0 1 12.72916,12.729168"
         style="opacity:1;vector-effect:none;fill:none;fill-opacity:1;fill-rule:nonzero;stroke:#000000;stroke-width:6.61458333;stroke-linecap:round;stroke-linejoin:round;stroke-miterlimit:4;stroke-dasharray:none;stroke-dashoffset:0;stroke-opacity:1;paint-order:stroke fill markers" />
      <path
         inkscape:connector-curvature="0"
         transform="matrix(0.26458333,0,0,0.26458333,19.687502,-78.249994)"
         id="path1028"
         d="m 527.48017,488.0065 -1e-5,221.2205"
         style="fill:none;stroke:#000000;stroke-width:25.00000031;stroke-linecap:butt;stroke-linejoin:miter;stroke-miterlimit:4;stroke-dasharray:none;stroke-opacity:1" />
      <path
         inkscape:connector-curvature="0"
         id="path11419-3"
         d="m 184.70829,50.868406 c 0,78.375004 0,78.375004 0,78.375004"
         style="fill:none;stroke:#000000;stroke-width:6.61458333;stroke-linecap:butt;stroke-linejoin:miter;stroke-miterlimit:4;stroke-dasharray:none;stroke-opacity:1" />
      <path
         inkscape:connector-curvature="0"
         id="path11345-9"
         d="M 60.03128,-5.514573 A 12.729167,12.729167 0 0 1 72.76045,-18.243741 12.729167,12.729167 0 0 1 85.48961,-5.514573"
         style="opacity:1;vector-effect:none;fill:none;fill-opacity:1;fill-rule:nonzero;stroke:#000000;stroke-width:6.61458333;stroke-linecap:round;stroke-linejoin:round;stroke-miterlimit:4;stroke-dasharray:none;stroke-dashoffset:0;stroke-opacity:1;paint-order:stroke fill markers" />
      <path
         inkscape:connector-curvature="0"
         id="path11345-4"
         d="M 26.95839,24.410073 A 12.729167,12.729167 0 0 1 39.68756,11.680905 12.729167,12.729167 0 0 1 52.41672,24.410073"
         style="opacity:1;vector-effect:none;fill:none;fill-opacity:1;fill-rule:nonzero;stroke:#000000;stroke-width:6.61458333;stroke-linecap:round;stroke-linejoin:round;stroke-miterlimit:4;stroke-dasharray:none;stroke-dashoffset:0;stroke-opacity:1;paint-order:stroke fill markers" />
      <path
         inkscape:connector-curvature="0"
         transform="matrix(0.26458333,0,0,0.26458333,19.687502,-78.249994)"
         id="path11419-0"
         d="M 123.70098,388.00655 V 636.12552"
         style="fill:none;stroke:#000000;stroke-width:25.00000031;stroke-linecap:butt;stroke-linejoin:miter;stroke-miterlimit:4;stroke-dasharray:none;stroke-opacity:1" />
      <path
         inkscape:connector-curvature="0"
         id="path11311-0"
         d="m 106.83334,161.3092 a 52.416617,51.909141 0 0 1 0,-3.6e-4 52.416617,51.909141 0 0 1 52.41662,-51.90919"
         style="opacity:1;vector-effect:none;fill:none;fill-opacity:1;fill-rule:nonzero;stroke:#000000;stroke-width:6.61458333;stroke-linecap:round;stroke-linejoin:round;stroke-miterlimit:4;stroke-dasharray:none;stroke-dashoffset:0;stroke-opacity:1;paint-order:stroke fill markers" />
      <path
         inkscape:connector-curvature="0"
         id="path11596"
         d="m 93.092662,80.032949 a 3.8015309,3.8130411 0 0 1 -3.801528,3.80785 3.8015309,3.8130411 0 0 1 -3.80153,-3.81304 3.8015309,3.8130411 0 0 1 5e-6,-0.006"
         style="opacity:1;vector-effect:none;fill:none;fill-opacity:1;fill-rule:nonzero;stroke:#000000;stroke-width:6.61458333;stroke-linecap:round;stroke-linejoin:round;stroke-miterlimit:4;stroke-dasharray:none;stroke-dashoffset:0;stroke-opacity:1;paint-order:stroke fill markers" />
      <path
         inkscape:connector-curvature="0"
         id="path11596-3"
         d="m 126.17707,80.082571 a 3.801531,3.8130411 0 0 1 -3.80153,3.80785 3.801531,3.8130411 0 0 1 -3.80153,-3.81304 3.801531,3.8130411 0 0 1 1e-5,-0.006"
         style="opacity:1;vector-effect:none;fill:none;fill-opacity:1;fill-rule:nonzero;stroke:#000000;stroke-width:6.61458333;stroke-linecap:round;stroke-linejoin:round;stroke-miterlimit:4;stroke-dasharray:none;stroke-dashoffset:0;stroke-opacity:1;paint-order:stroke fill markers" />
      <path
         inkscape:connector-curvature="0"
         id="path913"
         d="m 85.489609,80.021759 c 0,-85.5363324 0,-85.5363324 0,-85.5363324"
         style="fill:none;stroke:#000000;stroke-width:6.61458333;stroke-linecap:butt;stroke-linejoin:miter;stroke-miterlimit:4;stroke-dasharray:none;stroke-opacity:1" />
      <path
         inkscape:connector-curvature="0"
         id="path915"
         d="m 126.17707,80.082571 c 0,-86.1290601 0,-86.1290601 0,-86.1290601"
         style="fill:none;stroke:#000000;stroke-width:6.61458333;stroke-linecap:butt;stroke-linejoin:miter;stroke-miterlimit:4;stroke-dasharray:none;stroke-opacity:1" />
      <path
         inkscape:connector-curvature="0"
         id="path917"
         d="m 93.10418,-15.089042 c -0.01151,95.12199 -0.01151,95.12199 -0.01151,95.12199 v 0"
         style="fill:none;stroke:#000000;stroke-width:6.61458333;stroke-linecap:butt;stroke-linejoin:miter;stroke-miterlimit:4;stroke-dasharray:none;stroke-opacity:1" />
      <path
         inkscape:connector-curvature="0"
         id="path919"
         d="m 118.56251,-15.089042 c 0.0115,95.160421 0.0115,95.160421 0.0115,95.160421"
         style="fill:none;stroke:#000000;stroke-width:6.61458333;stroke-linecap:butt;stroke-linejoin:miter;stroke-miterlimit:4;stroke-dasharray:none;stroke-opacity:1" />
      <path
         inkscape:connector-curvature="0"
         id="path924"
         d="m 26.95839,24.410071 c 3e-6,104.833339 3e-6,104.833339 3e-6,104.833339"
         style="fill:none;stroke:#000000;stroke-width:6.61458333;stroke-linecap:butt;stroke-linejoin:miter;stroke-miterlimit:4;stroke-dasharray:none;stroke-opacity:1" />
      <path
         inkscape:connector-curvature="0"
         id="path11596-1"
         d="m 60.03128,90.058348 a 3.801531,3.8130411 0 0 1 -3.801528,3.80785 3.801531,3.8130411 0 0 1 -3.80153,-3.81304 3.801531,3.8130411 0 0 1 5e-6,-0.006"
         style="opacity:1;vector-effect:none;fill:none;fill-opacity:1;fill-rule:nonzero;stroke:#000000;stroke-width:6.61458333;stroke-linecap:round;stroke-linejoin:round;stroke-miterlimit:4;stroke-dasharray:none;stroke-dashoffset:0;stroke-opacity:1;paint-order:stroke fill markers" />
      <path
         inkscape:connector-curvature="0"
         id="path956"
         d="m 60.031279,90.058347 c 0,-95.5729204 0,-95.5729204 0,-95.5729204"
         style="fill:none;stroke:#000000;stroke-width:6.61458333;stroke-linecap:butt;stroke-linejoin:miter;stroke-miterlimit:4;stroke-dasharray:none;stroke-opacity:1" />
      <path
         inkscape:connector-curvature="0"
         id="path1033"
         d="m 151.6354,109.39964 c 0,-115.4461291 0,-115.4461291 0,-115.4461291"
         style="fill:none;stroke:#000000;stroke-width:6.61458333;stroke-linecap:butt;stroke-linejoin:miter;stroke-miterlimit:4;stroke-dasharray:none;stroke-opacity:1" />
    </g>
  </g>
</svg>
